<svg width="24" height="24" viewBox="0 0 24 24" fill="none" xmlns="http://www.w3.org/2000/svg">
<path d="M6.97999 2.708L10.46 4.448C11.43 4.928 12.56 4.928 13.53 4.448L17.01 2.708C20 1.218 23.15 4.428 21.59 7.378L20.77 8.918C20.66 9.128 20.48 9.298 20.26 9.398L7.62 15.098C7.1 15.328 6.49 15.118 6.23 14.618L2.42 7.378C0.859996 4.428 3.99999 1.218 6.97999 2.708Z" fill="#AAAAAA"/>
<path d="M8.40001 16.31L16.68 12.58C17.61 12.16 18.55 13.16 18.07 14.06L15.03 19.83C13.74 22.28 10.24 22.28 8.95001 19.83L7.88001 17.79C7.60001 17.24 7.84001 16.56 8.40001 16.31Z" fill="#AAAAAA"/>
</svg>
