<svg width="15" height="9" viewBox="0 0 15 9" fill="none" xmlns="http://www.w3.org/2000/svg">
<path fill-rule="evenodd" clip-rule="evenodd" d="M13.5 0H12.6563C12.1903 0 11.8125 0.37776 11.8125 0.843751V8.15626C11.8125 8.62225 12.1903 9.00001 12.6563 9.00001H13.5C13.966 9.00001 14.3438 8.62225 14.3438 8.15626V0.843751C14.3438 0.37776 13.966 0 13.5 0ZM8.71876 1.96875H9.56251C10.0285 1.96875 10.4063 2.34651 10.4063 2.8125V8.15626C10.4063 8.62225 10.0285 9.00001 9.56251 9.00001H8.71876C8.25277 9.00001 7.87501 8.62225 7.87501 8.15626V2.8125C7.87501 2.34651 8.25277 1.96875 8.71876 1.96875ZM5.625 3.9375H4.78125C4.31526 3.9375 3.9375 4.31526 3.9375 4.78125V8.15626C3.9375 8.62225 4.31526 9.00001 4.78125 9.00001H5.625C6.091 9.00001 6.46876 8.62225 6.46876 8.15626V4.78125C6.46876 4.31526 6.091 3.9375 5.625 3.9375ZM1.6875 5.625H0.843751C0.37776 5.625 0 6.00276 0 6.46875V8.15626C0 8.62225 0.37776 9.00001 0.843751 9.00001H1.6875C2.15349 9.00001 2.53125 8.62225 2.53125 8.15626V6.46875C2.53125 6.00276 2.15349 5.625 1.6875 5.625Z" fill="#1A1A1A"/>
</svg>
