<svg width="41" height="7" viewBox="0 0 41 7" fill="none" xmlns="http://www.w3.org/2000/svg">
<ellipse cx="3.41668" cy="3.08649" rx="3.41668" ry="3.08649" fill="#E1E1E1"/>
<path d="M15.375 3.08649C15.375 4.79112 13.8453 6.17299 11.9583 6.17299C10.0713 6.17299 8.54164 4.79112 8.54164 3.08649C8.54164 1.38187 10.0713 0 11.9583 0C13.8453 0 15.375 1.38187 15.375 3.08649Z" fill="#828282"/>
<path d="M23.9166 3.08649C23.9166 4.79112 22.3869 6.17299 20.5 6.17299C18.613 6.17299 17.0833 4.79112 17.0833 3.08649C17.0833 1.38187 18.613 0 20.5 0C22.3869 0 23.9166 1.38187 23.9166 3.08649Z" fill="#828282"/>
<path d="M32.4584 3.08649C32.4584 4.79112 30.9287 6.17299 29.0417 6.17299C27.1547 6.17299 25.625 4.79112 25.625 3.08649C25.625 1.38187 27.1547 0 29.0417 0C30.9287 0 32.4584 1.38187 32.4584 3.08649Z" fill="#828282"/>
<path d="M41 3.08649C41 4.79112 39.4703 6.17299 37.5833 6.17299C35.6964 6.17299 34.1667 4.79112 34.1667 3.08649C34.1667 1.38187 35.6964 0 37.5833 0C39.4703 0 41 1.38187 41 3.08649Z" fill="#828282"/>
</svg>
