<svg width="183" height="136" viewBox="0 0 183 136" fill="none" xmlns="http://www.w3.org/2000/svg">
<path d="M71.68 135.76C62.8444 135.76 54.5378 134.018 46.76 130.533C38.9822 126.987 32.1378 122.133 26.2267 115.973C20.3778 109.751 15.7733 102.533 12.4133 94.32C9.11556 86.1067 7.46667 77.3333 7.46667 68C7.46667 58.6667 9.11556 49.8933 12.4133 41.68C15.7733 33.4667 20.3778 26.28 26.2267 20.12C32.1378 13.8978 38.9822 9.04444 46.76 5.55999C54.5378 2.01332 62.8444 0.23999 71.68 0.23999C82.2578 0.23999 91.9956 2.69777 100.893 7.61332C109.791 12.5289 117.164 19.0622 123.013 27.2133L111.44 33.4667C106.836 27.3067 100.987 22.4222 93.8933 18.8133C86.8622 15.1422 79.4578 13.3067 71.68 13.3067C64.5244 13.3067 57.8356 14.7689 51.6133 17.6933C45.4533 20.5555 40.04 24.5067 35.3733 29.5467C30.7067 34.5867 27.0667 40.4044 24.4533 47C21.84 53.5955 20.5333 60.5956 20.5333 68C20.5333 75.5289 21.84 82.5911 24.4533 89.1867C27.1289 95.7822 30.8 101.6 35.4667 106.64C40.1956 111.68 45.64 115.631 51.8 118.493C58.0222 121.293 64.6489 122.693 71.68 122.693C79.7689 122.693 87.2667 120.858 94.1733 117.187C101.142 113.453 106.898 108.6 111.44 102.627L123.013 108.88C117.164 117.031 109.791 123.564 100.893 128.48C91.9956 133.333 82.2578 135.76 71.68 135.76Z" fill="black"/>
<path d="M103.067 64V34H107.947V64H103.067ZM121.242 64.52C119.402 64.52 117.722 64.0467 116.202 63.1C114.695 62.1533 113.488 60.88 112.582 59.28C111.688 57.68 111.242 55.9133 111.242 53.98C111.242 52.5267 111.502 51.1667 112.022 49.9C112.542 48.62 113.255 47.5 114.162 46.54C115.082 45.5667 116.148 44.8067 117.362 44.26C118.575 43.7133 119.868 43.44 121.242 43.44C122.802 43.44 124.228 43.7733 125.522 44.44C126.828 45.0933 127.935 45.9933 128.842 47.14C129.748 48.2867 130.408 49.5933 130.822 51.06C131.235 52.5267 131.328 54.06 131.102 55.66H116.482C116.668 56.4067 116.975 57.08 117.402 57.68C117.828 58.2667 118.368 58.74 119.022 59.1C119.675 59.4467 120.415 59.6267 121.242 59.64C122.095 59.6533 122.868 59.4533 123.562 59.04C124.268 58.6133 124.855 58.04 125.322 57.32L130.302 58.48C129.488 60.2533 128.275 61.7067 126.662 62.84C125.048 63.96 123.242 64.52 121.242 64.52ZM116.322 52H126.162C126.015 51.2 125.702 50.48 125.222 49.84C124.755 49.1867 124.175 48.6667 123.482 48.28C122.788 47.8933 122.042 47.7 121.242 47.7C120.442 47.7 119.702 47.8933 119.022 48.28C118.342 48.6533 117.762 49.1667 117.282 49.82C116.815 50.46 116.495 51.1867 116.322 52ZM149.514 44H154.394V64H149.514L149.294 61.52C148.747 62.4133 148.021 63.14 147.114 63.7C146.221 64.2467 145.161 64.52 143.934 64.52C142.454 64.52 141.067 64.24 139.774 63.68C138.481 63.12 137.341 62.3467 136.354 61.36C135.381 60.3733 134.614 59.2333 134.054 57.94C133.507 56.6467 133.234 55.26 133.234 53.78C133.234 52.3533 133.494 51.0133 134.014 49.76C134.547 48.5067 135.287 47.4067 136.234 46.46C137.181 45.5133 138.274 44.7733 139.514 44.24C140.754 43.7067 142.087 43.44 143.514 43.44C144.834 43.44 146.014 43.7333 147.054 44.32C148.107 44.9067 149.001 45.6533 149.734 46.56L149.514 44ZM143.814 59.82C144.854 59.82 145.774 59.56 146.574 59.04C147.374 58.52 148.001 57.82 148.454 56.94C148.907 56.0467 149.134 55.0667 149.134 54C149.134 52.92 148.907 51.94 148.454 51.06C148.001 50.1667 147.367 49.46 146.554 48.94C145.754 48.42 144.841 48.16 143.814 48.16C142.787 48.16 141.847 48.4267 140.994 48.96C140.154 49.48 139.481 50.18 138.974 51.06C138.481 51.94 138.234 52.92 138.234 54C138.234 55.08 138.487 56.06 138.994 56.94C139.501 57.82 140.174 58.52 141.014 59.04C141.867 59.56 142.801 59.82 143.814 59.82ZM176.699 51.36V64H171.819V52.64C171.819 51.8533 171.626 51.14 171.239 50.5C170.852 49.8467 170.332 49.3333 169.679 48.96C169.039 48.5733 168.326 48.38 167.539 48.38C166.752 48.38 166.032 48.5733 165.379 48.96C164.739 49.3333 164.226 49.8467 163.839 50.5C163.466 51.14 163.279 51.8533 163.279 52.64V64H158.399L158.379 44H163.259L163.279 45.78C163.959 45.06 164.772 44.4933 165.719 44.08C166.666 43.6533 167.686 43.44 168.779 43.44C170.232 43.44 171.559 43.8 172.759 44.52C173.959 45.2267 174.912 46.18 175.619 47.38C176.339 48.5667 176.699 49.8933 176.699 51.36ZM103.067 71H107.947V91H103.067V71ZM105.547 68.42C104.827 68.42 104.22 68.1867 103.727 67.72C103.233 67.24 102.987 66.64 102.987 65.92C102.987 65.2133 103.233 64.62 103.727 64.14C104.22 63.66 104.82 63.42 105.527 63.42C106.233 63.42 106.827 63.66 107.307 64.14C107.8 64.62 108.047 65.2133 108.047 65.92C108.047 66.64 107.807 67.24 107.327 67.72C106.847 68.1867 106.253 68.42 105.547 68.42ZM123.474 75.88H119.594V91H114.714V75.88H111.754V71H114.714V64.72H119.594V71H123.474V75.88ZM140.029 71H145.209L134.269 101H129.089L132.709 91L125.509 71H130.849L135.149 84.32L140.029 71Z" fill="black"/>
<path d="M84.4667 84.93L99.8667 93.26C96.6467 97.6467 92.61 101.17 87.7567 103.83C82.9033 106.49 77.6067 107.82 71.8667 107.82C65.4267 107.82 59.5467 106.163 54.2267 102.85C48.9533 99.5367 44.73 95.1033 41.5567 89.55C38.43 83.95 36.8667 77.7667 36.8667 71C36.8667 65.8667 37.7767 61.0833 39.5967 56.65C41.4167 52.17 43.9133 48.25 47.0867 44.89C50.3067 41.4833 54.04 38.8233 58.2867 36.91C62.5333 34.9967 67.06 34.04 71.8667 34.04C77.6067 34.04 82.9033 35.37 87.7567 38.03C92.61 40.69 96.6467 44.26 99.8667 48.74L84.4667 57C82.8333 55.1333 80.8967 53.6867 78.6567 52.66C76.4633 51.6333 74.2 51.12 71.8667 51.12C68.5067 51.12 65.4733 52.0533 62.7667 53.92C60.06 55.74 57.9133 58.1667 56.3267 61.2C54.74 64.1867 53.9467 67.4533 53.9467 71C53.9467 74.5 54.74 77.7667 56.3267 80.8C57.9133 83.7867 60.06 86.19 62.7667 88.01C65.4733 89.83 68.5067 90.74 71.8667 90.74C74.2933 90.74 76.6033 90.2267 78.7967 89.2C80.99 88.1267 82.88 86.7033 84.4667 84.93Z" fill="black"/>
</svg>
