<svg width="24" height="24" viewBox="0 0 24 24" fill="none" xmlns="http://www.w3.org/2000/svg">
<path d="M17.02 21.292L13.54 19.552C12.57 19.072 11.44 19.072 10.47 19.552L6.99 21.292C4 22.782 0.850004 19.572 2.41 16.622L3.23 15.082C3.34 14.872 3.52 14.702 3.74 14.602L16.38 8.90201C16.9 8.67201 17.51 8.882 17.77 9.382L21.58 16.622C23.14 19.572 20 22.782 17.02 21.292Z" fill="#AAAAAA"/>
<path d="M15.6 7.69002L7.31999 11.42C6.38999 11.84 5.44999 10.84 5.92999 9.94002L8.96999 4.17002C10.26 1.72002 13.76 1.72002 15.05 4.17002L16.12 6.21002C16.4 6.76002 16.16 7.44002 15.6 7.69002Z" fill="#AAAAAA"/>
</svg>
