<svg width="20" height="20" viewBox="0 0 20 20" fill="none" xmlns="http://www.w3.org/2000/svg">
<path d="M16.9842 17.6084C16.8185 17.6082 16.6596 17.5423 16.5425 17.425L11.2259 12.1084C11.1096 11.9908 11.0444 11.8321 11.0444 11.6667C11.0444 11.5014 11.1096 11.3427 11.2259 11.225L17.6675 4.78338C17.8259 4.62505 18.0675 4.56671 18.2842 4.62505C18.5009 4.69171 18.6675 4.86671 18.7175 5.08338C18.8759 5.79171 18.9592 6.58338 18.9592 7.50005V12.5C18.9592 14.8084 18.4759 16.3667 17.4259 17.425C17.3092 17.5417 17.1342 17.5667 16.9842 17.6084ZM12.5509 11.6667L16.9342 16.05C17.4592 15.2417 17.7092 14.0917 17.7092 12.5V7.50005C17.7092 7.15838 17.7009 6.84171 17.6759 6.54171L12.5509 11.6667Z" fill="black"/>
<path d="M5.22496 18.7333C5.17496 18.7333 5.13329 18.725 5.08329 18.7166C2.32496 18.0833 1.04163 16.1083 1.04163 12.5V7.49996C1.04163 2.97496 2.97496 1.04163 7.49996 1.04163H12.5C16.1083 1.04163 18.0833 2.32496 18.7166 5.08329C18.7666 5.29163 18.7 5.51663 18.55 5.66663L5.66663 18.55C5.54953 18.6672 5.39066 18.7331 5.22496 18.7333ZM7.49996 2.29163C3.65829 2.29163 2.29163 3.65829 2.29163 7.49996V12.5C2.29163 15.3916 3.09163 16.8416 5.03329 17.4166L17.4083 5.04163C16.8416 3.09996 15.3833 2.29996 12.4916 2.29996H7.49996V2.29163Z" fill="black"/>
<path d="M12.5 18.9591H7.49998C6.58331 18.9591 5.79998 18.8841 5.08331 18.7175C4.97453 18.6942 4.87424 18.6415 4.7934 18.565C4.71257 18.4886 4.6543 18.3914 4.62498 18.2841C4.55831 18.0675 4.62498 17.8341 4.78331 17.6675L11.225 11.2258C11.4666 10.9841 11.8666 10.9841 12.1083 11.2258L17.425 16.5425C17.542 16.6596 17.6078 16.8185 17.6078 16.9841C17.6078 17.1497 17.542 17.3086 17.425 17.4258C16.3666 18.4758 14.8083 18.9591 12.5 18.9591ZM6.54165 17.6758C6.84165 17.7008 7.15831 17.7091 7.49998 17.7091H12.5C14.1 17.7091 15.2416 17.4591 16.05 16.9341L11.6666 12.5508L6.54165 17.6758ZM7.59915 11.0916C7.07415 11.0916 6.54915 10.9 6.13248 10.5083C4.80748 9.24995 4.27415 7.86662 4.59081 6.51662C4.90748 5.13328 6.11581 4.19995 7.59915 4.19995C9.08248 4.19995 10.2908 5.13328 10.6075 6.51662C10.9158 7.87495 10.3825 9.24995 9.05748 10.5083C8.64915 10.8916 8.12415 11.0916 7.59915 11.0916ZM5.80748 6.79162C5.54081 7.92495 6.30748 8.94162 6.99915 9.59995C7.34081 9.92495 7.86581 9.92495 8.19915 9.59995C8.88248 8.94995 9.64915 7.93328 9.39081 6.79162C9.16581 5.79995 8.28248 5.44162 7.59915 5.44162C6.91581 5.44162 6.04081 5.79995 5.80748 6.79162Z" fill="black"/>
<path d="M7.62337 7.90666C7.16504 7.90666 6.79004 7.53166 6.79004 7.07332C6.79004 6.61499 7.15671 6.23999 7.62337 6.23999H7.63171C8.09004 6.23999 8.46504 6.61499 8.46504 7.07332C8.46504 7.53166 8.08171 7.90666 7.62337 7.90666Z" fill="black"/>
</svg>
