<svg width="13" height="10" viewBox="0 0 13 10" fill="none" xmlns="http://www.w3.org/2000/svg">
<path fill-rule="evenodd" clip-rule="evenodd" d="M6.50033 1.93684C8.38651 1.93692 10.2006 2.66106 11.5676 3.95958C11.6705 4.05983 11.835 4.05856 11.9364 3.95674L12.9204 2.96451C12.9718 2.91286 13.0004 2.84291 12.9999 2.77013C12.9995 2.69734 12.9701 2.62773 12.9181 2.57669C9.33023 -0.858895 3.66987 -0.858895 0.0819478 2.57669C0.0299743 2.62769 0.000485188 2.69728 5.93358e-06 2.77007C-0.000473321 2.84285 0.0280968 2.91283 0.0793942 2.96451L1.06367 3.95674C1.16499 4.05872 1.32965 4.05998 1.43253 3.95958C2.7997 2.66097 4.61396 1.93683 6.50033 1.93684ZM6.50032 5.165C7.53666 5.16494 8.53601 5.54981 9.3042 6.24483C9.4081 6.34347 9.57177 6.34133 9.67305 6.24001L10.6559 5.24778C10.7077 5.19573 10.7364 5.12513 10.7356 5.05176C10.7349 4.9784 10.7047 4.90839 10.6519 4.85741C8.31266 2.68324 4.68997 2.68324 2.35069 4.85741C2.29785 4.90839 2.2677 4.97843 2.26701 5.05182C2.26631 5.12521 2.29513 5.19581 2.347 5.24778L3.32958 6.24001C3.43086 6.34133 3.59453 6.34347 3.69843 6.24483C4.46611 5.55027 5.46467 5.16543 6.50032 5.165ZM8.46916 7.33699C8.47066 7.41056 8.44172 7.48149 8.38915 7.53304L6.68901 9.24733C6.63917 9.29772 6.57122 9.32607 6.50032 9.32607C6.42942 9.32607 6.36148 9.29772 6.31164 9.24733L4.61121 7.53304C4.55868 7.48145 4.52978 7.4105 4.53134 7.33693C4.5329 7.26335 4.56477 7.19368 4.61944 7.14436C5.70521 6.22679 7.29543 6.22679 8.38121 7.14436C8.43583 7.19372 8.46766 7.26341 8.46916 7.33699Z" fill="#1A1A1A"/>
</svg>
