<svg width="20" height="20" viewBox="0 0 20 20" fill="none" xmlns="http://www.w3.org/2000/svg">
<path d="M16.9842 17.6084C16.8184 17.6082 16.6596 17.5423 16.5425 17.425L11.2258 12.1084C11.1096 11.9908 11.0444 11.8321 11.0444 11.6667C11.0444 11.5014 11.1096 11.3427 11.2258 11.225L17.6675 4.78338C17.8258 4.62505 18.0675 4.56671 18.2842 4.62505C18.5008 4.69171 18.6675 4.86671 18.7175 5.08338C18.8758 5.79171 18.9592 6.58338 18.9592 7.50005V12.5C18.9592 14.8084 18.4758 16.3667 17.4258 17.425C17.3092 17.5417 17.1342 17.5667 16.9842 17.6084ZM12.5508 11.6667L16.9342 16.05C17.4592 15.2417 17.7092 14.0917 17.7092 12.5V7.50005C17.7092 7.15838 17.7008 6.84171 17.6758 6.54171L12.5508 11.6667Z" fill="#6A6A6A"/>
<path d="M5.22499 18.7333C5.17499 18.7333 5.13332 18.725 5.08332 18.7166C2.32499 18.0833 1.04166 16.1083 1.04166 12.5V7.49996C1.04166 2.97496 2.97499 1.04163 7.49999 1.04163H12.5C16.1083 1.04163 18.0833 2.32496 18.7167 5.08329C18.7667 5.29163 18.7 5.51663 18.55 5.66663L5.66666 18.55C5.54956 18.6672 5.39069 18.7331 5.22499 18.7333ZM7.49999 2.29163C3.65832 2.29163 2.29166 3.65829 2.29166 7.49996V12.5C2.29166 15.3916 3.09166 16.8416 5.03332 17.4166L17.4083 5.04163C16.8417 3.09996 15.3833 2.29996 12.4917 2.29996H7.49999V2.29163Z" fill="#6A6A6A"/>
<path d="M12.5 18.9591H7.50001C6.58334 18.9591 5.80001 18.8841 5.08334 18.7175C4.97456 18.6942 4.87427 18.6415 4.79343 18.565C4.7126 18.4886 4.65434 18.3914 4.62501 18.2841C4.55834 18.0675 4.62501 17.8341 4.78334 17.6675L11.225 11.2258C11.4667 10.9841 11.8667 10.9841 12.1083 11.2258L17.425 16.5425C17.5421 16.6596 17.6078 16.8185 17.6078 16.9841C17.6078 17.1497 17.5421 17.3086 17.425 17.4258C16.3667 18.4758 14.8083 18.9591 12.5 18.9591ZM6.54168 17.6758C6.84168 17.7008 7.15834 17.7091 7.50001 17.7091H12.5C14.1 17.7091 15.2417 17.4591 16.05 16.9341L11.6667 12.5508L6.54168 17.6758ZM7.59918 11.0916C7.07418 11.0916 6.54918 10.9 6.13251 10.5083C4.80751 9.24995 4.27418 7.86662 4.59084 6.51662C4.90751 5.13328 6.11585 4.19995 7.59918 4.19995C9.08251 4.19995 10.2908 5.13328 10.6075 6.51662C10.9158 7.87495 10.3825 9.24995 9.05751 10.5083C8.64918 10.8916 8.12418 11.0916 7.59918 11.0916ZM5.80751 6.79162C5.54084 7.92495 6.30751 8.94162 6.99918 9.59995C7.34084 9.92495 7.86584 9.92495 8.19918 9.59995C8.88251 8.94995 9.64918 7.93328 9.39084 6.79162C9.16584 5.79995 8.28251 5.44162 7.59918 5.44162C6.91585 5.44162 6.04084 5.79995 5.80751 6.79162Z" fill="#6A6A6A"/>
<path d="M7.62334 7.90666C7.16501 7.90666 6.79001 7.53166 6.79001 7.07332C6.79001 6.61499 7.15668 6.23999 7.62334 6.23999H7.63168C8.09001 6.23999 8.46501 6.61499 8.46501 7.07332C8.46501 7.53166 8.08168 7.90666 7.62334 7.90666Z" fill="#6A6A6A"/>
</svg>
