<svg width="25" height="9" viewBox="0 0 25 9" fill="none" xmlns="http://www.w3.org/2000/svg">
<path d="M3.39234 9C5.75027 9 7.1509 7.29392 7.1509 4.39894C7.1509 1.55746 5.66032 0 3.44374 0C1.42632 0 0 1.25429 0 3.00793C0 4.65456 1.28498 5.85535 3.05182 5.85535C4.13762 5.85535 5.01783 5.39168 5.45473 4.57728H5.56395C5.54467 6.59247 4.76726 7.74571 3.41161 7.74571C2.61493 7.74571 1.97886 7.34148 1.77969 6.68758H0.128498C0.398343 8.08454 1.69617 9 3.39234 9ZM3.45016 4.67239C2.37078 4.67239 1.6255 3.97094 1.6255 2.96037C1.6255 1.99141 2.40933 1.24835 3.45659 1.24835C4.50384 1.24835 5.28768 2.0033 5.28768 2.99009C5.28768 3.96499 4.52312 4.67239 3.45016 4.67239Z" fill="#1A1A1A"/>
<path d="M9.7982 3.23976C10.4086 3.23976 10.8262 2.84742 10.8262 2.31836C10.8262 1.7893 10.4086 1.39696 9.7982 1.39696C9.19426 1.39696 8.77022 1.7893 8.77022 2.31836C8.77022 2.84742 9.19426 3.23976 9.7982 3.23976ZM9.7982 7.60304C10.4086 7.60304 10.8262 7.20476 10.8262 6.68164C10.8262 6.15258 10.4086 5.76024 9.7982 5.76024C9.19426 5.76024 8.77022 6.15258 8.77022 6.68164C8.77022 7.20476 9.19426 7.60304 9.7982 7.60304Z" fill="#1A1A1A"/>
<path d="M16.9686 8.79194H18.5556V7.14531H19.8084V5.87913H18.5556V0.214003H16.2169C14.9576 1.98547 13.6405 3.95905 12.4391 5.89102V7.14531H16.9686V8.79194ZM13.9746 5.82563C14.8805 4.36922 15.9535 2.78203 16.9044 1.43857H16.9943V5.9148H13.9746V5.82563Z" fill="#1A1A1A"/>
<path d="M23.3424 8.79194H25V0.214003H23.3488L20.9266 1.7893V3.23382L23.2332 1.72391H23.3424V8.79194Z" fill="#1A1A1A"/>
</svg>
